<?xml version="1.0" encoding="utf-8"?>
<!-- Generator: Adobe Illustrator 25.4.1, SVG Export Plug-In . SVG Version: 6.00 Build 0)  -->
<svg version="1.1" id="Layer_1" xmlns="http://www.w3.org/2000/svg" xmlns:xlink="http://www.w3.org/1999/xlink" x="0px" y="0px"
	 viewBox="0 0 334.8 129.2" style="enable-background:new 0 0 334.8 129.2;" xml:space="preserve">
<g id="Group_34075" transform="translate(-909 -1256.999)">
	
		<linearGradient id="Path_9876_00000029755578975582125090000012126641667864257702_" gradientUnits="userSpaceOnUse" x1="779.5842" y1="1738.906" x2="780.1923" y2="1736.1121" gradientTransform="matrix(334.849 0 0 -72.953 -260068.375 128106.2109)">
		<stop  offset="0" style="stop-color:#2E68B7"/>
		<stop  offset="0.851" style="stop-color:#25255F"/>
		<stop  offset="1" style="stop-color:#25255F"/>
	</linearGradient>
	<path id="Path_9876" style="fill:url(#Path_9876_00000029755578975582125090000012126641667864257702_);" d="M909,1313.2h334.8v73
		H909V1313.2z"/>
	<g id="Group_33576" transform="translate(40.721 734.461)">
		
			<linearGradient id="Path_13001_00000114034604813106938890000006814558923427229572_" gradientUnits="userSpaceOnUse" x1="740.4848" y1="1002.3792" x2="740.4848" y2="1003.3792" gradientTransform="matrix(76.211 0 0 -70.513 -55397.6992 71273.8125)">
			<stop  offset="0" style="stop-color:#2ECCA2"/>
			<stop  offset="0.38" style="stop-color:#2ECCA2"/>
			<stop  offset="0.588" style="stop-color:#2ECCA2"/>
			<stop  offset="0.864" style="stop-color:#34E3B5"/>
			<stop  offset="0.975" style="stop-color:#33FFC9"/>
			<stop  offset="1" style="stop-color:#55F2C8"/>
		</linearGradient>
		<path id="Path_13001" style="fill:url(#Path_13001_00000114034604813106938890000006814558923427229572_);" d="M997.3,522.5h76.2
			v70.5h-76.2V522.5z"/>
		<g style="enable-background:new    ;">
			<path style="fill:#25255F;" d="M1007.6,553.3h-3.5v-5.6h9.7v25.6h-6.2V553.3z"/>
			<path style="fill:#25255F;" d="M1026.7,547.2c7.3,0,9.8,5.5,9.8,13c0,7.6-2.6,13-9.8,13c-7.3,0-9.8-5.5-9.8-13
				C1016.9,552.7,1019.5,547.2,1026.7,547.2z M1026.7,552.8c-3.5,0-4,3.4-4,7.4c0,4.1,0.4,7.4,4,7.4c3.5,0,4-3.4,4-7.4
				C1030.7,556.3,1030.3,552.8,1026.7,552.8z"/>
			<path style="fill:#25255F;" d="M1044,548.3c3.3,0,5.8,2,5.8,5.9c0,3.9-2.5,5.9-5.8,5.9s-5.8-2-5.8-5.9
				C1038.2,550.3,1040.7,548.3,1044,548.3z M1042.3,554.2c0,1.6,0.6,2.4,1.7,2.4c1.1,0,1.7-0.7,1.7-2.4c0-1.7-0.7-2.4-1.7-2.4
				C1042.9,551.8,1042.3,552.5,1042.3,554.2z M1056.2,548.7h5.8l-13.5,24.6h-5.8L1056.2,548.7z M1060.7,561.9c3.3,0,5.8,2,5.8,5.9
				c0,3.9-2.5,5.9-5.8,5.9s-5.8-2-5.8-5.9C1054.8,563.8,1057.3,561.9,1060.7,561.9z M1058.9,567.8c0,1.6,0.6,2.4,1.7,2.4
				c1.1,0,1.7-0.7,1.7-2.4c0-1.6-0.7-2.4-1.7-2.4C1059.6,565.4,1058.9,566.1,1058.9,567.8z"/>
		</g>
	</g>
	<g style="enable-background:new    ;">
		<path style="fill:#FFFFFF;" d="M955,1352.2c0,5.6-3.9,9.5-9.9,9.5h-7.1v-18.9h7.1C951.1,1342.8,955,1346.6,955,1352.2z
			 M944.7,1357.7c3.5,0,5.5-2,5.5-5.5s-2.1-5.5-5.5-5.5h-2.2v11H944.7z"/>
		<path style="fill:#FFFFFF;" d="M957.6,1342.8h4.6v18.9h-4.6V1342.8z"/>
		<path style="fill:#FFFFFF;" d="M972.4,1361.9c-4.1,0-7.3-2-7.4-5.9h4.9c0.1,1.5,1.1,2.2,2.3,2.2c1.4,0,2.2-0.7,2.2-1.8
			c0-3.5-9.5-1.6-9.4-8.3c0-3.6,2.9-5.6,6.9-5.6c4.1,0,6.9,2.1,7.1,5.7h-5c-0.1-1.2-0.9-1.9-2.2-2c-1.1,0-1.9,0.5-1.9,1.7
			c0,3.3,9.4,1.8,9.4,8.2C979.3,1359.3,976.8,1361.9,972.4,1361.9z"/>
		<path style="fill:#FFFFFF;" d="M990.9,1342.5c4.5,0,7.9,2.5,9,6.6h-5.1c-0.8-1.6-2.2-2.4-4-2.4c-2.8,0-4.8,2.1-4.8,5.5
			c0,3.3,1.9,5.5,4.8,5.5c1.8,0,3.2-0.8,4-2.4h5.1c-1.1,4.1-4.5,6.6-9,6.6c-5.6,0-9.5-4-9.5-9.6
			C981.3,1346.5,985.3,1342.5,990.9,1342.5z"/>
		<path style="fill:#FFFFFF;" d="M1011.7,1361.9c-5.4,0-9.7-4-9.7-9.7s4.4-9.7,9.7-9.7c5.4,0,9.7,4,9.7,9.7
			S1017,1361.9,1011.7,1361.9z M1011.7,1357.7c3,0,5-2.2,5-5.5c0-3.4-2-5.5-5-5.5c-3.1,0-5,2.1-5,5.5
			C1006.6,1355.5,1008.6,1357.7,1011.7,1357.7z"/>
		<path style="fill:#FFFFFF;" d="M1023.8,1342.8h4.6v11.3c0,2.2,1.1,3.5,3.3,3.5s3.3-1.3,3.3-3.5v-11.3h4.6v11.3
			c0,5.2-3.7,7.8-8,7.8c-4.4,0-7.8-2.6-7.8-7.8V1342.8z"/>
		<path style="fill:#FFFFFF;" d="M1059.9,1342.8v18.9h-4.6l-7.7-11.7v11.7h-4.6v-18.9h4.6l7.7,11.7v-11.7H1059.9z"/>
		<path style="fill:#FFFFFF;" d="M1062.2,1342.8h14.7v3.7h-5v15.3h-4.6v-15.3h-5V1342.8z"/>
		<path style="fill:#FFFFFF;" d="M1097.8,1342.8h4.9l-6.7,18.9h-5.8l-6.7-18.9h4.9l4.7,14.3L1097.8,1342.8z"/>
		<path style="fill:#FFFFFF;" d="M1113.6,1361.9c-5.4,0-9.7-4-9.7-9.7s4.4-9.7,9.7-9.7c5.4,0,9.7,4,9.7,9.7
			S1119,1361.9,1113.6,1361.9z M1113.6,1357.7c3,0,5-2.2,5-5.5c0-3.4-2-5.5-5-5.5c-3.1,0-5,2.1-5,5.5
			C1108.6,1355.5,1110.5,1357.7,1113.6,1357.7z"/>
		<path style="fill:#FFFFFF;" d="M1125.8,1342.8h4.6v11.3c0,2.2,1.1,3.5,3.3,3.5s3.3-1.3,3.3-3.5v-11.3h4.6v11.3
			c0,5.2-3.7,7.8-8,7.8c-4.4,0-7.8-2.6-7.8-7.8V1342.8z"/>
		<path style="fill:#FFFFFF;" d="M1153.6,1342.5c4.5,0,7.9,2.5,9,6.6h-5.1c-0.8-1.6-2.2-2.4-4-2.4c-2.8,0-4.8,2.1-4.8,5.5
			c0,3.3,1.9,5.5,4.8,5.5c1.8,0,3.2-0.8,4-2.4h5.1c-1.1,4.1-4.5,6.6-9,6.6c-5.6,0-9.5-4-9.5-9.6
			C1144.1,1346.5,1148.1,1342.5,1153.6,1342.5z"/>
		<path style="fill:#FFFFFF;" d="M1177.3,1353.9h-7.2v7.8h-4.6v-18.9h4.6v7.4h7.2v-7.4h4.6v18.9h-4.6V1353.9z"/>
		<path style="fill:#FFFFFF;" d="M1196.8,1346.5h-7v3.8h6.2v3.6h-6.2v4.2h7v3.7h-11.6v-18.9h11.6V1346.5z"/>
		<path style="fill:#FFFFFF;" d="M1207.6,1342.8c4.6,0,7,2.7,7,6c0,2.4-1.3,4.6-4.2,5.5l4.4,7.5h-5.2l-3.9-7.2h-1.1v7.2h-4.6v-18.9
			H1207.6z M1207.3,1346.6h-2.9v4.7h2.9c1.7,0,2.5-0.9,2.5-2.4C1209.8,1347.5,1209,1346.6,1207.3,1346.6z"/>
	</g>
</g>
</svg>
