<?xml version="1.0" encoding="utf-8"?>
<!-- Generator: Adobe Illustrator 25.4.1, SVG Export Plug-In . SVG Version: 6.00 Build 0)  -->
<svg version="1.1" id="Layer_1" xmlns="http://www.w3.org/2000/svg" xmlns:xlink="http://www.w3.org/1999/xlink" x="0px" y="0px"
	 viewBox="0 0 115.4 89" style="enable-background:new 0 0 115.4 89;" xml:space="preserve">
<g id="Group_11977" transform="matrix(0.883, -0.469, 0.469, 0.883, 0, 45.827)">
	<path id="Path_9753" style="fill:#D5EBFF;" d="M109.2,20.9l-94.3-25c-1.4-0.4-2.8,0.5-3.2,1.9c-0.2,0.9,0,1.8,0.6,2.5l17.1,18
		L109.2,20.9z"/>
	<path id="Path_9754" style="fill:#D5EBFF;" d="M36.4,29.7l4,23.3c0.6,3.3,3.7,5.5,7,4.9c0.8-0.1,1.5-0.4,2.1-0.8l59.6-36.2
		L36.4,29.7z"/>
	<path id="Path_9755" style="fill:#789BDE;" d="M29.4,18.3l-13.7,21l20.7-9.6l72.7-8.8L29.4,18.3z"/>
	<path id="Path_9756" style="fill:#1C397B;" d="M37.5,35.5l-21.7,3.8l20.7-9.6L37.5,35.5z"/>
</g>
</svg>
