<?xml version="1.0" encoding="utf-8"?>
<!-- Generator: Adobe Illustrator 25.4.1, SVG Export Plug-In . SVG Version: 6.00 Build 0)  -->
<svg version="1.1" id="Layer_1" xmlns="http://www.w3.org/2000/svg" xmlns:xlink="http://www.w3.org/1999/xlink" x="0px" y="0px"
	 viewBox="0 0 21.3 21.3" style="enable-background:new 0 0 21.3 21.3;" xml:space="preserve">
<g id="Group_11975" transform="translate(-115 -0.453)">
	<g id="copy" transform="translate(115 0.453)">
		<path id="Path_9752" style="fill:#25255F;" d="M19.2,0H7.1C5.9,0,4.9,1,4.9,2.1v2.8H2.1C1,4.9,0,5.9,0,7.1v12.1
			c0,1.2,1,2.1,2.1,2.1h12.1c1.2,0,2.1-1,2.1-2.1v-2.8h2.8c1.2,0,2.1-1,2.1-2.1V2.1C21.3,1,20.3,0,19.2,0z M14.7,19.2
			c0,0.3-0.2,0.5-0.5,0.5H2.1c-0.3,0-0.5-0.2-0.5-0.5V7.1c0-0.3,0.2-0.5,0.5-0.5c0,0,0,0,0,0h12.1c0.3,0,0.5,0.2,0.5,0.5V19.2z
			 M19.7,14.2c0,0.3-0.2,0.5-0.5,0.5h-2.8V7.1c0-1.2-1-2.1-2.1-2.1H6.6V2.1c0-0.3,0.2-0.5,0.5-0.5l0,0h12.1c0.3,0,0.5,0.2,0.5,0.5
			V14.2z"/>
	</g>
</g>
</svg>
