<svg version="1.1" viewBox="0 0 706 101" xmlns="http://www.w3.org/2000/svg">
	<g fill="none" fill-rule="evenodd" style="stroke-width:0">
		<g transform="translate(0 -1)" fill-rule="nonzero" style="stroke-width:0">
			<path d="m55.312 51.896c20.795-9.6187 6.4429-46.834-4.836-48.732-1.1573 0.33067-16.74-4.0439-17.484 3.472-1.1331-9.0657-31-6.6004-31.744 1.116s4.2974 7.8945-0.248 9.672c2.728 7.0067-4.0894 24.632 3.472 31.744-3.472 7.6753-2.1769 42.532-1.736 44.516 1.1573 5.0427 3.5633 8.047 16.74 7.316 11.097-2.4796-7.8656-41.788 10.788-44.888 0.30862 0.15431 2.976 4.6014 3.472 4.6014 16.74 0.98535 3.9989 38.5 11.78 37.807 2.7677 3.6751 20.129 2.3147 20.956 2.48-1.24-3.0591 3.4162-43.114-11.16-49.104v-4e-4zm-30.628-11.78c1.9766-3.5027-3.7314-18.17 1.364-20.212 1.1573 0.57867 15.376-3.8498 16.74 7.688-2.1181 2.3931 1.4857 14.514-1.364 16.616-4.4843-2.3135-13.816 5.3125-16.74-4.092zm105.4 36.58c-1.4966-9.7478-18.765-3.6373-19.344-2.232 0.16533 1.4053-4.836 14.706-12.524 7.502-3.6896-4.65-7.4308-13.941-0.62-16.43 6.3653 0.41333 12.317-0.372 17.856-2.356 5.208 4.736 11.105 2.6007 14.756 0.806s3.6514-33.439-9.548-38.006c-0.496 0.08267-7.9906-4.0752-10.664 0-3.8027-1.736-29.884-7.9395-31.558 10.478-0.99904 12.221-5.3413 29.078 3.41 40.858-1.3122 22.384 4.7561 21.567 24.056 23.684 14.756-0.68066 25.158-19.034 24.18-24.304zm-33.48-25.916c-1.772-6.262 1.1987-9.424 4.092-12.4 0.66133 0.16533 3.2758-0.248 5.828-0.248 12.719 11.019 2.8284 14.867-9.92 12.648zm90.52 48.236c6.3667 3.4464 12.763 0.16533 11.656-3.1-1.1072-3.2653-2.6453-24.469-2.232-37.448-1.5571-5.704-1.5157-10.664 0.124-14.88 0.68396-1.7586 0.68396-17.2-13.516-18.104-4.6291 2.4013-14.841-0.16386-20.956-0.868-15.815-1.8211-26.672 24.238-13.392 25.668 0.65921 0.07096 4.836-1.804 9.672 0.62 2.4389-11.098 18.515-16.426 19.15-5.828 0.6499 11.458-25.97 12.382-32.914 20.584-3.858 4.5569-5.8536 11.903-1.116 19.22-2.742 6.059 6.7966 20.116 24.738 15.996 0.78543-0.16533 7.9072-8.752 18.786-1.86zm-23.56-27.404c3.2014-2.2203 12.534-7.9771 12.648-1.736 0 0.57867 1.6171 15.624-8.432 15.624-7.248-1.9786-7.838-12.182-4.216-13.888zm65.348 27.652c-0.248-6.696-1.5516-37.448-0.062-50.282s0.22733-38.254 0.062-42.966c-0.90933-0.82667-5.4614-2.6513-14.57-1.736s-2.5471 4.4178-1.798 6.2c5.3852 9.4321-2.48 17.195-2.48 18.104-6.3585 13.683 2.4826 31.501-1.984 33.232-0.86027 2.615 12.79 14.289 1.984 17.913-0.744 0.90933-1.364 2.8051-1.364 6.2666s6.4816 8.5064 2.232 11.532l2.356 3.4724c2.852-3.472 11.031 2.0254 15.624-1.736zm66.96-16.368c-5.7719-8.8184-28.272 0-33.728-3.348 1.0114-1.9479-10.556-22.196 5.456-21.576 1.4049 0.0544 22.302 5.2438 25.916-1.984-1.3961-6.1079-1.7268-11.109-0.992-15.004-3.0406-7.359-18.917 5.0375-28.644-0.62-0.90933-2.48-1.1573-15.211-0.744-18.848 5e-3 0 0.0116 1e-5 0.0194 3e-5 21.488 0.85015 32.393 0.31281 32.717-1.612 1.6281-8.6334 1.6281-13.883 0-15.748-4.6807 0.94311-38.396-1.2984-38.656-1.2621-3.5637 2.4948-14.829 5.1061-16.896 5.3541-0.41333 2.48-1.2638 5.3088-0.62 7.812 5.7239 22.254 3.3067 39.06 2.976 41.292 0.11022 14.797-0.22044 27.073-0.992 36.828 0.992 6.486 16.433 7.6169 25.916 5.5529 2.6777-3.1398 25.296-1.8742 27.28-1.4609 5.9546-2.8101 0.90896-13.971 0.99162-15.376l-2e-5 -3e-5zm42.16-38.192c1.24 6.796 17.443 4.0507 17.856 4.216 3.3683-30.634-36.112-30.006-36.87-17.934-4.743-0.93555-9.5063-0.93555-11.862 3.5497 1.5707 1.24 3.5481 4.03 0.82007 5.332-5.5634-1.8491-0.82007 6.944-4.2921 7.936 4.2921 18.373 23.179 22.444 26.412 22.444 14.693 0 18.634 17.014-1.116 15.376-2.0667-0.66133-6.696-2.5239-6.696-11.532-9.0933-3.0734-14.136-2.164-15.128 2.728-1.488 7.3381 0.496 14.715 1.488 15.872 4.8773 5.5387 12.732 8.5396 23.56 8.308 47.955-1.0259 31.106-54.607-5.084-50.344-7.83-13.386 10.498-13.336 10.912-5.952l3e-5 3e-4zm47.864-25.296c-1.4437 1.4437-13.792 0.665-16.12 6.82 1.24 3.472 3.5576 11.414 7.936 10.912 11.415 16.773-0.38296 44.506 6.076 56.732 0 12.893 22.201 7.193 23.684 6.6319 8.8564-3.3499 1.116-16.037 0.868-16.616-3.3067 1.488-4.1005-0.66425-4.2917-2.0662-6.0566 0.18127-5.8364-25.13-1.7843-43.814h6.82c5.0439-0.868 5.9414-9.9084 1.86-14.26-1.86-2.3867-7.936 1.4581-10.416-1.736 3.6526-14.15 1.9992-20.888-4.96-20.212-1.2389 0.12027-11.78 0-11.78 4.712s6.8106 11.661-0.992 8.432c-0.42299-0.17505 0.62 1.2193 3.1 4.464v3e-4zm118 0c-1.4437 1.4437-13.792 0.665-16.12 6.82 1.24 3.472 3.5576 11.414 7.936 10.912 11.415 16.773-0.38296 44.506 6.076 56.732 0 12.893 22.201 7.193 23.684 6.6319 8.8564-3.3499 1.116-16.037 0.868-16.616-3.3067 1.488-4.1005-0.66425-4.2917-2.0662-6.0566 0.18127-5.8364-25.13-1.7843-43.814h6.82c5.0439-0.868 5.9414-9.9084 1.86-14.26-1.86-2.3867-7.936 1.4581-10.416-1.736 3.6526-14.15 1.9992-20.888-4.96-20.212-1.2389 0.12027-11.78 0-11.78 4.712s6.8106 11.661-0.992 8.432c-0.42299-0.17505 0.62 1.2193 3.1 4.464v3e-4zm-50.668 78.492c5.7339-9.5135 21.657 1.9188 25.792-1.984-0.992-1.7972-1.4422-14.18-1.3506-37.148-6.2788-1.8289 7.5689-29.754-14.273-33.284-5.58 1.3607-19.642-0.66482-20.956-0.868-17.861-2.7615-21.576 17.98-19.22 20.46 2.7374 9.9394 10.714 1.9258 15.5 5.828 0.992-0.66133 0.67131-9.8935 6.8713-10.591 5.0327-0.99609 16.95 1.0786 9.621 9.8465-19.675 4.2508-34.348 13.551-34.348 26.164 0.744 1.6533 6.2275 8.9695 2.356 13.392 3.4926 16.631 26.722 12.655 30.008 8.1845h-7e-4zm-5.208-12.4c-4.1333-0.992-6.2-3.3067-6.2-6.944 0-7.3849 6.9066-8.68 11.036-11.904 11.624 8.1325 2.1091 19.762-4.836 18.848zm141.61 4.836c-0.90144-5.8209 9.6747-12.343 0.248-19.468-0.36182-0.27348-13.216-1.2415-15.004 3.596 1.918 9.5614-11.656 11.474-12.524 7.502s-7.2728-10.028-0.62-16.43c6.3653 0.41333 12.317-0.372 17.856-2.356 5.3598 6.7072 16.74-0.5787 16.74-1.488 0-0.22044-2.5559-43.769-22.196-35.712-3.8027-1.736-34.72-10.108-34.72 15.5 6.572 6.5088 4.34 23.808 4.34 25.048-1.6796 23.278 7.289 33.699 26.288 34.472 8.5973-1.1573 15.128-4.712 19.592-10.664zm-24.8-51.956c11.149-2.8967 14.871 7.9048 10.664 11.408-15.006 9.1012-19.072-6.4384-10.664-11.408z" fill="#4E6A53" style="stroke-width:0"/>
			<path d="m671.35 68.388c-2.4941-2.2933-2.48-12.648 0.744-22.816-1.488-5.3733-3.9245-9.4509-0.744-13.64-2.48-5.0546-0.28211-25.337-2.4941-29.562-5.6389-3.4827-15.858 1.9096-19.578-0.57036-6.3343 21.199 2.6453 46.252 3.472 46.996-4.216-1.488-2.0667 13.971-3.472 15.376 4.3603 0.884 4.1123 3.6947-0.744 8.432 0.0827 0.57867 5.7997 10.398-1.5465 7.0477 0.16533 0.496-21.301 14.311-18.913-16.348 0.3776-4.8492 2.5663-50.72 0.124-59.024l-18.228-2.48-2.728 13.268c3.472 1.0438 0.992 4.216 0.992 4.464 0 0.66133 0.57867 1.1573 1.736 1.488-4.216 5.3653-3.8027 21.824-4.216 26.288-0.63187 4.5368 7.9549 8.3716 2.48 8.432 3.2135 12.937 2.8829 19.592-0.992 19.964 3.472 2.48 4.1568 7.812 1.736 9.548 1.9292 4.163 4.4918 7.759 7.688 10.788 5.3733 4.1333 36.828 15.414 47.988-4.2156 6.6961-3.9329 1.3325-17.426 6.6961-23.436l-5e-4 2.6e-4z" fill="#F5A623" style="stroke-width:0"/>
			<path d="m702.87 21.224c2.2314-2.2119 3.3472-4.9097 3.3472-8.0933 0-3.125-1.1133-5.7983-3.3398-8.02-2.2266-2.2217-4.9072-3.3325-8.042-3.3325s-5.8154 1.1108-8.042 3.3325-3.3398 4.9048-3.3398 8.0493c0 3.1055 1.106 5.7788 3.3179 8.02s4.856 3.3619 7.9321 3.3619c3.2128 0 5.935-1.106 8.1664-3.3179zm-8.1665 1.6919c-2.6172 0-4.8779-0.96191-6.7822-2.8857-1.8945-1.9238-2.8418-4.2139-2.8418-6.8701 0-2.2656 0.7666-4.3506 2.2998-6.2549 1.875-2.334 4.3604-3.501 7.4561-3.501s5.5811 1.167 7.4561 3.501c1.5332 1.9043 2.2998 3.9844 2.2998 6.2402 0 2.2754-0.7666 4.3652-2.2998 6.2695-1.875 2.334-4.4043 3.501-7.5879 3.501h-1e-4zm-1.6406-3.5596v-5.127h1.5527l3.3252 5.127h2.2998l-3.7061-5.7275c0.71289-0.43945 1.25-0.95703 1.6113-1.5527s0.54199-1.2646 0.54199-2.0068c0-1.0059-0.31006-1.7603-0.93018-2.2632-0.62012-0.50293-1.5503-0.75439-2.7905-0.75439h-3.8818v12.305h1.9775l9e-5 -4.1e-4zm0.43945-6.665h-0.57129v-4.3652h1.0986c0.9082 0 1.5894 0.16113 2.0435 0.4834s0.68115 0.80566 0.68115 1.4502c0 0.81055-0.271 1.4185-0.81299 1.8237s-1.355 0.60791-2.439 0.60791h3e-5z" fill="#4E6A53" style="stroke-width:0"/>
		</g>
	</g>
</svg>
